<mxfile host="app.diagrams.net" modified="2023-09-25T16:49:38.699Z" agent="Mozilla/5.0 (X11; Linux x86_64) AppleWebKit/537.36 (KHTML, like Gecko) Chrome/116.0.0.0 Safari/537.36" version="21.8.2" etag="FE8OEhonuXvKGqeOPU6T" type="github">
  <diagram name="Page-1" id="DYknNNsCQ8uxFUA7YLZo">
    <mxGraphModel>
      <root>
        <mxCell id="0" />
        <mxCell id="1" parent="0" />
      </root>
    </mxGraphModel>
  </diagram>
</mxfile>
